<svg style="position: absolute; width: 0; height: 0;" width="0" height="0" version="1.1" xmlns="http://www.w3.org/2000/svg" xmlns:xlink="http://www.w3.org/1999/xlink"><defs><symbol id="user" viewBox="0 -212 1024 1024"><path d="M897 618 q0 -32 -2 -62 q-2 -30 -8 -66 q-7 -35 -16 -65 q-10 -30 -26 -59 q-17 -28 -38 -49 q-21 -19 -51 -31 q-30 -13 -67 -13 q-6 0 -25 13 q-20 13 -45 29 q-25 16 -65 29 q-40 13 -80 13 q-41 0 -81 -13 q-40 -13 -64 -29 q-26 -16 -46 -29 q-19 -13 -25 -13 q-37 0 -67 13 q-30 12 -51 31 q-21 21 -38 49 q-16 29 -26 59 q-9 30 -15 65 q-7 36 -9 66 q-2 30 -2 62 q0 72 44 114 q44 42 117 42 l525 0 q73 0 117 -42 q44 -42 44 -114 l0 0 ZM637 -83 q-68 -67 -163 -67 q-96 0 -164 67 q-67 68 -67 164 q0 96 67 163 q68 68 164 68 q95 0 163 -68 q68 -67 68 -163 q0 -96 -68 -164 l0 0 Z"></path></symbol><symbol id="envelope" viewBox="0 -212 1024 1024"><path d="M1142 669 q0 9 -6 14 q-6 7 -15 7 l-966 0 q-9 0 -14 -7 q-7 -5 -7 -14 l0 -504 q21 24 45 43 q176 135 280 222 q33 28 54 44 q21 16 57 32 q36 16 67 16 l2 0 q31 0 67 -16 q36 -16 57 -32 q21 -16 54 -44 q104 -87 280 -222 q24 -19 45 -43 l0 504 l0 0 ZM1142 -21 q0 39 -30 86 q-31 48 -66 76 q-127 100 -264 208 q-4 4 -23 19 q-19 17 -30 25 q-11 9 -29 21 q-18 12 -33 18 q-15 6 -28 6 l-2 0 q-13 0 -28 -6 q-15 -6 -33 -18 q-18 -12 -29 -21 q-11 -8 -30 -25 q-19 -15 -23 -19 q-137 -108 -264 -208 q-96 -76 -96 -186 q0 -9 7 -15 q5 -6 14 -6 l966 0 q5 0 9 1 q4 2 6 6 q2 3 4 5 q1 3 2 8 l0 9 l0 9 l0 7 l0 0 ZM1226 -45 q0 -43 -31 -74 q-31 -31 -74 -31 l-966 0 q-43 0 -74 31 q-31 31 -31 74 l0 714 q0 43 31 74 q31 31 74 31 l966 0 q43 0 74 -31 q31 -31 31 -74 l0 -714 l0 0 Z"></path></symbol><symbol id="phone" viewBox="0 -212 1024 1024"><path d="M974 580 q0 -9 -2 -14 q-4 -12 -50 -35 q-12 -7 -35 -20 q-23 -12 -42 -22 q-19 -11 -35 -21 q-3 -2 -16 -12 q-14 -9 -23 -13 q-10 -5 -19 -5 q-14 0 -33 18 q-20 19 -36 41 q-17 22 -35 41 q-19 19 -30 19 q-6 0 -15 -4 q-9 -3 -14 -5 q-4 -2 -15 -10 q-11 -6 -13 -7 q-90 -50 -154 -114 q-64 -64 -114 -154 q-1 -2 -7 -13 q-8 -11 -10 -15 q-2 -5 -5 -14 q-4 -9 -4 -15 q0 -11 19 -30 q19 -18 41 -35 q22 -16 41 -36 q18 -19 18 -33 q0 -9 -5 -19 q-4 -9 -13 -23 q-10 -13 -12 -16 q-10 -16 -21 -35 q-10 -19 -22 -42 q-13 -23 -20 -35 q-23 -46 -35 -50 q-5 -2 -14 -2 q-17 0 -46 7 q-29 6 -45 13 q-33 14 -70 80 q-33 62 -33 122 q0 18 3 35 q2 17 8 38 q5 21 9 30 q4 11 13 37 q10 26 12 32 q23 65 55 115 q52 84 142 173 q89 90 173 142 q50 32 115 55 q6 2 32 12 q26 9 37 13 q9 4 30 9 q21 6 38 8 q17 3 35 3 q60 0 122 -33 q66 -37 80 -70 q7 -16 13 -45 q7 -29 7 -46 l0 0 Z"></path></symbol><symbol id="unif1d6" viewBox="0 -212 1024 1024"><path d="M180 266 q-130 98 -130 240 q0 24 12 51 q2 1 3 3 q1 3 3 3 q21 -2 41 -20 q18 -17 27 -38 q5 -10 7 -10 l2 1 q7 32 38 81 q31 48 55 54 l2 2 q0 1 -2 2 q-5 1 -7 1 q-10 0 -25 6 q-15 6 -21 7 q-16 15 -21 24 q-5 11 -5 31 q0 19 17 33 q16 14 38 21 q21 7 52 10 q30 4 48 5 q17 1 35 1 q43 0 87 -10 q45 -11 66 -34 q4 1 21 1 q16 0 23 2 q4 1 12 4 q33 10 54 15 q21 6 51 11 q29 4 57 4 q122 0 155 -50 q3 -3 4 -9 q1 -6 2 -8 q-4 -22 -18 -34 q-15 -12 -36 -21 q-21 -10 -32 -20 q38 -36 68 -115 l3 -2 q1 0 2 0 q0 1 4 9 q4 8 7 14 q3 5 9 14 q5 8 9 13 q5 5 10 9 q5 4 10 4 q19 0 29 -30 q10 -29 10 -51 q0 -56 -22 -108 q-23 -51 -63 -110 q0 -1 -1 -2 q-1 -1 -1 -3 q-1 -1 -1 -1 q0 -7 4 -20 q5 -13 5 -21 q0 -34 -29 -77 l0 -3 q-6 -29 -11 -50 q-6 -21 -13 -46 q-9 -26 -17 -44 q-9 -18 -22 -38 q-13 -20 -28 -35 q-16 -15 -37 -29 q-21 -14 -46 -25 q-69 -28 -137 -28 q-96 0 -168 34 q-64 31 -111 108 q-48 77 -48 149 q-8 6 -12 22 q-4 16 -4 27 q-7 9 -12 24 q-6 14 -6 25 q0 17 4 27 l0 0 Z"></path></symbol><symbol id="github_sign" viewBox="0 -212 1024 1024"><path d="M362 495 q-3 3 -8 -1 q-4 -5 -2 -8 q3 -3 8 1 q5 4 2 8 l0 0 ZM345 470 q4 6 0 8 q-3 2 -7 -3 q-3 -5 0 -7 q4 -2 7 2 l0 0 ZM321 446 q-1 3 -6 1 q-4 -1 -2 -4 q0 -3 5 -2 q4 3 3 5 l0 0 ZM333 460 q-3 2 -6 -1 q-3 -4 -1 -7 q3 -2 6 2 q2 1 3 3 q0 2 -2 3 l0 0 ZM385 505 q-2 4 -8 3 q-6 -3 -5 -7 q2 -4 8 -3 q6 3 5 7 l0 0 ZM404 512 q-7 0 -7 -5 q0 -5 6 -5 q7 0 7 5 q0 5 -6 5 l0 0 ZM434 503 q0 5 -6 6 q-6 1 -7 -4 q-2 -4 5 -5 q7 -2 8 3 l0 0 ZM820 312 q0 100 -59 180 q-59 81 -152 112 q-10 2 -15 -3 q-6 -4 -6 -12 q0 -1 1 -30 l0 -54 q0 -38 -21 -57 q23 -2 41 -7 q19 -5 38 -16 q19 -11 32 -27 q13 -16 21 -42 q9 -26 9 -60 q0 -48 -32 -83 q14 -37 -3 -81 q-12 -4 -34 5 q-23 9 -34 16 q-10 6 -17 10 q-35 -10 -77 -10 q-42 0 -77 10 l-16 -9 q-15 -10 -36 -18 q-21 -8 -33 -4 q-17 44 -3 81 q-32 35 -32 83 q0 42 12 71 q12 30 33 46 q22 16 44 24 q23 7 52 11 q-16 13 -20 41 q-8 4 -18 6 q-9 2 -23 2 q-13 0 -26 -8 q-13 -9 -22 -25 q-8 -14 -20 -22 q-13 -8 -18 -9 q-6 -1 -9 -1 q-9 0 -12 2 q-3 2 -2 4 q0 3 4 6 q3 3 5 5 q1 1 2 2 q21 9 35 44 q4 16 18 25 q12 10 25 12 q14 3 29 3 q16 0 22 -2 q5 0 9 -1 q1 26 1 57 q0 8 -5 12 q-6 5 -16 3 q-93 -31 -152 -112 q-59 -80 -59 -180 q0 -128 90 -218 q90 -90 218 -90 q128 0 218 90 q90 90 90 218 l0 0 ZM974 23 q0 -71 -51 -122 q-51 -51 -122 -51 l-578 0 q-71 0 -122 51 q-51 51 -51 122 l0 578 q0 71 51 122 q51 51 122 51 l578 0 q71 0 122 -51 q51 -51 51 -122 l0 -578 l0 0 Z"></path></symbol></defs></svg>